<mxfile host="app.diagrams.net" agent="Mozilla/5.0 (Windows NT 10.0; Win64; x64) AppleWebKit/537.36 (KHTML, like Gecko) Chrome/130.0.0.0 YaBrowser/24.12.0.0 Safari/537.36" version="25.0.3">
  <diagram name="Страница — 1" id="09DSEvgiDCL6AinO3aHt">
    <mxGraphModel dx="2440" dy="1888" grid="1" gridSize="10" guides="1" tooltips="1" connect="1" arrows="1" fold="1" page="1" pageScale="1" pageWidth="827" pageHeight="1169" math="0" shadow="0">
      <root>
        <mxCell id="0" />
        <mxCell id="1" parent="0" />
        <mxCell id="1gT3Ja12D5MldLnMkyY_-1" value="" style="rounded=1;whiteSpace=wrap;html=1;fillColor=#006600;" vertex="1" parent="1">
          <mxGeometry x="120" y="80" width="110" height="90" as="geometry" />
        </mxCell>
        <mxCell id="1gT3Ja12D5MldLnMkyY_-2" value="" style="rounded=1;whiteSpace=wrap;html=1;fillColor=#006600;" vertex="1" parent="1">
          <mxGeometry x="120" y="240" width="110" height="90" as="geometry" />
        </mxCell>
        <mxCell id="1gT3Ja12D5MldLnMkyY_-3" value="&lt;font color=&quot;#ffffff&quot;&gt;Process 1.9&lt;/font&gt;" style="text;strokeColor=none;align=center;fillColor=none;html=1;verticalAlign=middle;whiteSpace=wrap;rounded=0;" vertex="1" parent="1">
          <mxGeometry x="125" y="80" width="100" height="30" as="geometry" />
        </mxCell>
        <mxCell id="1gT3Ja12D5MldLnMkyY_-4" value="" style="endArrow=none;html=1;rounded=0;exitX=0;exitY=0.5;exitDx=0;exitDy=0;entryX=1;entryY=0.5;entryDx=0;entryDy=0;" edge="1" parent="1">
          <mxGeometry width="50" height="50" relative="1" as="geometry">
            <mxPoint x="120" y="100" as="sourcePoint" />
            <mxPoint x="230" y="100" as="targetPoint" />
          </mxGeometry>
        </mxCell>
        <mxCell id="1gT3Ja12D5MldLnMkyY_-5" value="&lt;font color=&quot;#ffffff&quot;&gt;Записать информации о события в журнал&lt;/font&gt;" style="text;strokeColor=none;align=center;fillColor=none;html=1;verticalAlign=middle;whiteSpace=wrap;rounded=0;" vertex="1" parent="1">
          <mxGeometry x="145" y="120" width="60" height="30" as="geometry" />
        </mxCell>
        <mxCell id="1gT3Ja12D5MldLnMkyY_-7" value="&lt;u&gt;&lt;font color=&quot;#ffffff&quot;&gt;Process 1.8&lt;/font&gt;&lt;/u&gt;" style="text;strokeColor=none;align=center;fillColor=none;html=1;verticalAlign=middle;whiteSpace=wrap;rounded=0;" vertex="1" parent="1">
          <mxGeometry x="130" y="240" width="90" height="30" as="geometry" />
        </mxCell>
        <mxCell id="1gT3Ja12D5MldLnMkyY_-8" value="" style="endArrow=none;html=1;rounded=0;exitX=0;exitY=0.25;exitDx=0;exitDy=0;entryX=1;entryY=0.25;entryDx=0;entryDy=0;" edge="1" parent="1" source="1gT3Ja12D5MldLnMkyY_-2" target="1gT3Ja12D5MldLnMkyY_-2">
          <mxGeometry width="50" height="50" relative="1" as="geometry">
            <mxPoint x="180" y="310" as="sourcePoint" />
            <mxPoint x="230" y="260" as="targetPoint" />
          </mxGeometry>
        </mxCell>
        <mxCell id="1gT3Ja12D5MldLnMkyY_-9" value="&lt;b&gt;&lt;font color=&quot;#ffffff&quot;&gt;Запросить системные дату и время&lt;/font&gt;&lt;/b&gt;" style="text;strokeColor=none;align=center;fillColor=none;html=1;verticalAlign=middle;whiteSpace=wrap;rounded=0;" vertex="1" parent="1">
          <mxGeometry x="145" y="280" width="60" height="30" as="geometry" />
        </mxCell>
        <mxCell id="1gT3Ja12D5MldLnMkyY_-10" value="" style="rounded=0;whiteSpace=wrap;html=1;" vertex="1" parent="1">
          <mxGeometry x="100" y="380" width="150" height="60" as="geometry" />
        </mxCell>
        <mxCell id="1gT3Ja12D5MldLnMkyY_-11" value="Операционная система" style="text;strokeColor=none;align=center;fillColor=none;html=1;verticalAlign=middle;whiteSpace=wrap;rounded=0;" vertex="1" parent="1">
          <mxGeometry x="100" y="395" width="150" height="30" as="geometry" />
        </mxCell>
        <mxCell id="1gT3Ja12D5MldLnMkyY_-12" value="" style="rounded=0;whiteSpace=wrap;html=1;" vertex="1" parent="1">
          <mxGeometry x="25" y="480" width="135" height="60" as="geometry" />
        </mxCell>
        <mxCell id="1gT3Ja12D5MldLnMkyY_-13" value="Администратор" style="text;strokeColor=none;align=center;fillColor=none;html=1;verticalAlign=middle;whiteSpace=wrap;rounded=0;" vertex="1" parent="1">
          <mxGeometry x="60" y="495" width="60" height="30" as="geometry" />
        </mxCell>
        <mxCell id="1gT3Ja12D5MldLnMkyY_-16" value="" style="whiteSpace=wrap;html=1;fillColor=#006600;rounded=1;" vertex="1" parent="1">
          <mxGeometry x="240" y="480" width="100" height="70" as="geometry" />
        </mxCell>
        <mxCell id="1gT3Ja12D5MldLnMkyY_-19" value="" style="endArrow=none;html=1;rounded=0;entryX=1;entryY=0.25;entryDx=0;entryDy=0;exitX=0;exitY=0.25;exitDx=0;exitDy=0;" edge="1" parent="1">
          <mxGeometry width="50" height="50" relative="1" as="geometry">
            <mxPoint x="240" y="500" as="sourcePoint" />
            <mxPoint x="340" y="500" as="targetPoint" />
          </mxGeometry>
        </mxCell>
        <mxCell id="1gT3Ja12D5MldLnMkyY_-20" value="&lt;font color=&quot;#ffffff&quot;&gt;Process 1.1&lt;/font&gt;" style="text;strokeColor=none;align=center;fillColor=none;html=1;verticalAlign=middle;whiteSpace=wrap;rounded=0;" vertex="1" parent="1">
          <mxGeometry x="250" y="480" width="80" height="30" as="geometry" />
        </mxCell>
        <mxCell id="1gT3Ja12D5MldLnMkyY_-21" value="&lt;font color=&quot;#ffffff&quot;&gt;Вызвать форму ввода учетных данных&lt;/font&gt;" style="text;strokeColor=none;align=center;fillColor=none;html=1;verticalAlign=middle;whiteSpace=wrap;rounded=0;" vertex="1" parent="1">
          <mxGeometry x="250" y="510" width="90" height="30" as="geometry" />
        </mxCell>
        <mxCell id="1gT3Ja12D5MldLnMkyY_-22" value="" style="rounded=1;whiteSpace=wrap;html=1;fillColor=#006600;" vertex="1" parent="1">
          <mxGeometry x="400" y="480" width="100" height="70" as="geometry" />
        </mxCell>
        <mxCell id="1gT3Ja12D5MldLnMkyY_-23" value="" style="endArrow=none;html=1;rounded=0;entryX=0.992;entryY=0.429;entryDx=0;entryDy=0;entryPerimeter=0;" edge="1" parent="1">
          <mxGeometry width="50" height="50" relative="1" as="geometry">
            <mxPoint x="400" y="500" as="sourcePoint" />
            <mxPoint x="499.19999999999993" y="500.03" as="targetPoint" />
          </mxGeometry>
        </mxCell>
        <mxCell id="1gT3Ja12D5MldLnMkyY_-24" value="&lt;font color=&quot;#ffffff&quot;&gt;Process 1.2&lt;/font&gt;" style="text;strokeColor=none;align=center;fillColor=none;html=1;verticalAlign=middle;whiteSpace=wrap;rounded=0;" vertex="1" parent="1">
          <mxGeometry x="414" y="480" width="70" height="30" as="geometry" />
        </mxCell>
        <mxCell id="1gT3Ja12D5MldLnMkyY_-25" value="" style="rounded=1;whiteSpace=wrap;html=1;fillColor=#006600;" vertex="1" parent="1">
          <mxGeometry x="570" y="480" width="100" height="70" as="geometry" />
        </mxCell>
        <mxCell id="1gT3Ja12D5MldLnMkyY_-27" value="&lt;font color=&quot;#ffffff&quot;&gt;Process 1.3&lt;/font&gt;" style="text;strokeColor=none;align=center;fillColor=none;html=1;verticalAlign=middle;whiteSpace=wrap;rounded=0;" vertex="1" parent="1">
          <mxGeometry x="585" y="470" width="70" height="30" as="geometry" />
        </mxCell>
        <mxCell id="1gT3Ja12D5MldLnMkyY_-36" value="" style="endArrow=none;html=1;rounded=0;entryX=1;entryY=0.25;entryDx=0;entryDy=0;exitX=0;exitY=0.25;exitDx=0;exitDy=0;" edge="1" parent="1" source="1gT3Ja12D5MldLnMkyY_-25" target="1gT3Ja12D5MldLnMkyY_-25">
          <mxGeometry width="50" height="50" relative="1" as="geometry">
            <mxPoint x="570" y="500" as="sourcePoint" />
            <mxPoint x="620" y="450" as="targetPoint" />
          </mxGeometry>
        </mxCell>
        <mxCell id="1gT3Ja12D5MldLnMkyY_-37" value="&lt;font color=&quot;#ffffff&quot;&gt;Проверить логин на наличие в БД&lt;/font&gt;" style="text;strokeColor=none;align=center;fillColor=none;html=1;verticalAlign=middle;whiteSpace=wrap;rounded=0;" vertex="1" parent="1">
          <mxGeometry x="577.5" y="510" width="85" height="30" as="geometry" />
        </mxCell>
        <mxCell id="1gT3Ja12D5MldLnMkyY_-38" value="" style="whiteSpace=wrap;html=1;fillColor=#006600;rounded=1;" vertex="1" parent="1">
          <mxGeometry x="740" y="480" width="100" height="70" as="geometry" />
        </mxCell>
        <mxCell id="1gT3Ja12D5MldLnMkyY_-41" value="" style="endArrow=none;html=1;rounded=0;entryX=1;entryY=0.286;entryDx=0;entryDy=0;entryPerimeter=0;" edge="1" parent="1" target="1gT3Ja12D5MldLnMkyY_-38">
          <mxGeometry width="50" height="50" relative="1" as="geometry">
            <mxPoint x="740" y="500" as="sourcePoint" />
            <mxPoint x="790" y="450" as="targetPoint" />
          </mxGeometry>
        </mxCell>
        <mxCell id="1gT3Ja12D5MldLnMkyY_-42" value="&lt;font color=&quot;#ffffff&quot;&gt;Process 1.4&lt;/font&gt;" style="text;strokeColor=none;align=center;fillColor=none;html=1;verticalAlign=middle;whiteSpace=wrap;rounded=0;" vertex="1" parent="1">
          <mxGeometry x="755" y="480" width="70" height="30" as="geometry" />
        </mxCell>
        <mxCell id="1gT3Ja12D5MldLnMkyY_-43" value="&lt;font color=&quot;#ffffff&quot;&gt;Проверить пароль на наличие в БД&lt;/font&gt;" style="text;strokeColor=none;align=center;fillColor=none;html=1;verticalAlign=middle;whiteSpace=wrap;rounded=0;" vertex="1" parent="1">
          <mxGeometry x="747.5" y="510" width="85" height="30" as="geometry" />
        </mxCell>
        <mxCell id="1gT3Ja12D5MldLnMkyY_-44" value="&lt;font color=&quot;#ffffff&quot;&gt;Ввести учетные данные&lt;/font&gt;" style="text;strokeColor=none;align=center;fillColor=none;html=1;verticalAlign=middle;whiteSpace=wrap;rounded=0;" vertex="1" parent="1">
          <mxGeometry x="410" y="510" width="90" height="30" as="geometry" />
        </mxCell>
        <mxCell id="1gT3Ja12D5MldLnMkyY_-45" value="" style="whiteSpace=wrap;html=1;fillColor=#006600;rounded=1;" vertex="1" parent="1">
          <mxGeometry x="940" y="480" width="100" height="70" as="geometry" />
        </mxCell>
        <mxCell id="1gT3Ja12D5MldLnMkyY_-47" value="" style="endArrow=none;html=1;rounded=0;entryX=1;entryY=0.25;entryDx=0;entryDy=0;exitX=0;exitY=0.25;exitDx=0;exitDy=0;exitPerimeter=0;" edge="1" parent="1" source="1gT3Ja12D5MldLnMkyY_-45" target="1gT3Ja12D5MldLnMkyY_-45">
          <mxGeometry width="50" height="50" relative="1" as="geometry">
            <mxPoint x="910" y="500" as="sourcePoint" />
            <mxPoint x="960" y="450" as="targetPoint" />
          </mxGeometry>
        </mxCell>
        <mxCell id="1gT3Ja12D5MldLnMkyY_-48" value="&lt;font color=&quot;#ffffff&quot;&gt;Process 1.5&lt;/font&gt;" style="text;strokeColor=none;align=center;fillColor=none;html=1;verticalAlign=middle;whiteSpace=wrap;rounded=0;" vertex="1" parent="1">
          <mxGeometry x="950" y="470" width="70" height="30" as="geometry" />
        </mxCell>
        <mxCell id="1gT3Ja12D5MldLnMkyY_-49" value="&lt;font color=&quot;#ffffff&quot;&gt;Предоставить доступ к системе&lt;/font&gt;" style="text;strokeColor=none;align=center;fillColor=none;html=1;verticalAlign=middle;whiteSpace=wrap;rounded=0;" vertex="1" parent="1">
          <mxGeometry x="960" y="510" width="60" height="30" as="geometry" />
        </mxCell>
        <mxCell id="1gT3Ja12D5MldLnMkyY_-50" value="" style="endArrow=classic;html=1;rounded=0;" edge="1" parent="1">
          <mxGeometry width="50" height="50" relative="1" as="geometry">
            <mxPoint x="230" y="110" as="sourcePoint" />
            <mxPoint x="310" y="110" as="targetPoint" />
          </mxGeometry>
        </mxCell>
        <mxCell id="1gT3Ja12D5MldLnMkyY_-55" value="02" style="rounded=0;whiteSpace=wrap;html=1;" vertex="1" parent="1">
          <mxGeometry x="310" y="100" width="30" height="20" as="geometry" />
        </mxCell>
        <mxCell id="1gT3Ja12D5MldLnMkyY_-57" value="" style="endArrow=none;html=1;rounded=0;" edge="1" parent="1">
          <mxGeometry width="50" height="50" relative="1" as="geometry">
            <mxPoint x="340" y="100" as="sourcePoint" />
            <mxPoint x="440" y="100" as="targetPoint" />
          </mxGeometry>
        </mxCell>
        <mxCell id="1gT3Ja12D5MldLnMkyY_-58" value="" style="endArrow=none;html=1;rounded=0;" edge="1" parent="1">
          <mxGeometry width="50" height="50" relative="1" as="geometry">
            <mxPoint x="340" y="120" as="sourcePoint" />
            <mxPoint x="440" y="120" as="targetPoint" />
          </mxGeometry>
        </mxCell>
        <mxCell id="1gT3Ja12D5MldLnMkyY_-59" value="Журнал событий" style="text;strokeColor=none;align=center;fillColor=none;html=1;verticalAlign=middle;whiteSpace=wrap;rounded=0;" vertex="1" parent="1">
          <mxGeometry x="340" y="95" width="100" height="30" as="geometry" />
        </mxCell>
        <mxCell id="1gT3Ja12D5MldLnMkyY_-60" value="" style="endArrow=classic;html=1;rounded=0;" edge="1" parent="1">
          <mxGeometry width="50" height="50" relative="1" as="geometry">
            <mxPoint x="577.5" y="480" as="sourcePoint" />
            <mxPoint x="577.5" y="400" as="targetPoint" />
          </mxGeometry>
        </mxCell>
        <mxCell id="1gT3Ja12D5MldLnMkyY_-61" value="" style="endArrow=classic;html=1;rounded=0;entryX=0.786;entryY=0.333;entryDx=0;entryDy=0;entryPerimeter=0;" edge="1" parent="1">
          <mxGeometry width="50" height="50" relative="1" as="geometry">
            <mxPoint x="653.75" y="400" as="sourcePoint" />
            <mxPoint x="653.7700000000002" y="479.9899999999998" as="targetPoint" />
          </mxGeometry>
        </mxCell>
        <mxCell id="1gT3Ja12D5MldLnMkyY_-62" value="" style="rounded=0;whiteSpace=wrap;html=1;" vertex="1" parent="1">
          <mxGeometry x="530" y="380" width="25" height="20" as="geometry" />
        </mxCell>
        <mxCell id="1gT3Ja12D5MldLnMkyY_-63" value="" style="endArrow=none;html=1;rounded=0;" edge="1" parent="1">
          <mxGeometry width="50" height="50" relative="1" as="geometry">
            <mxPoint x="555" y="400" as="sourcePoint" />
            <mxPoint x="697.5" y="400" as="targetPoint" />
          </mxGeometry>
        </mxCell>
        <mxCell id="1gT3Ja12D5MldLnMkyY_-64" value="" style="endArrow=none;html=1;rounded=0;" edge="1" parent="1">
          <mxGeometry width="50" height="50" relative="1" as="geometry">
            <mxPoint x="555" y="380" as="sourcePoint" />
            <mxPoint x="697.5" y="380" as="targetPoint" />
          </mxGeometry>
        </mxCell>
        <mxCell id="1gT3Ja12D5MldLnMkyY_-65" value="03" style="text;strokeColor=none;align=center;fillColor=none;html=1;verticalAlign=middle;whiteSpace=wrap;rounded=0;" vertex="1" parent="1">
          <mxGeometry x="530" y="375" width="30" height="30" as="geometry" />
        </mxCell>
        <mxCell id="1gT3Ja12D5MldLnMkyY_-66" value="Таблица логинов в БД" style="text;strokeColor=none;align=center;fillColor=none;html=1;verticalAlign=middle;whiteSpace=wrap;rounded=0;" vertex="1" parent="1">
          <mxGeometry x="555" y="375" width="130" height="30" as="geometry" />
        </mxCell>
        <mxCell id="1gT3Ja12D5MldLnMkyY_-68" value="" style="endArrow=classic;html=1;rounded=0;entryX=0.5;entryY=1;entryDx=0;entryDy=0;" edge="1" parent="1" target="1gT3Ja12D5MldLnMkyY_-69">
          <mxGeometry width="50" height="50" relative="1" as="geometry">
            <mxPoint x="603" y="380" as="sourcePoint" />
            <mxPoint x="605" y="320" as="targetPoint" />
          </mxGeometry>
        </mxCell>
        <mxCell id="1gT3Ja12D5MldLnMkyY_-69" value="" style="whiteSpace=wrap;html=1;fillColor=#006600;rounded=1;" vertex="1" parent="1">
          <mxGeometry x="542.5" y="255" width="117.5" height="60" as="geometry" />
        </mxCell>
        <mxCell id="1gT3Ja12D5MldLnMkyY_-73" value="" style="endArrow=none;html=1;rounded=0;entryX=1;entryY=0.25;entryDx=0;entryDy=0;" edge="1" parent="1" target="1gT3Ja12D5MldLnMkyY_-69">
          <mxGeometry width="50" height="50" relative="1" as="geometry">
            <mxPoint x="542.5" y="270" as="sourcePoint" />
            <mxPoint x="592.5" y="220" as="targetPoint" />
          </mxGeometry>
        </mxCell>
        <mxCell id="1gT3Ja12D5MldLnMkyY_-74" value="&lt;font color=&quot;#ffffff&quot;&gt;Process 1.6&lt;/font&gt;" style="text;strokeColor=none;align=center;fillColor=none;html=1;verticalAlign=middle;whiteSpace=wrap;rounded=0;" vertex="1" parent="1">
          <mxGeometry x="560" y="260" width="80" height="10" as="geometry" />
        </mxCell>
        <mxCell id="1gT3Ja12D5MldLnMkyY_-75" value="&lt;font color=&quot;#ffffff&quot;&gt;Сообщить о неверном значении пароля&lt;/font&gt;" style="text;strokeColor=none;align=center;fillColor=none;html=1;verticalAlign=middle;whiteSpace=wrap;rounded=0;" vertex="1" parent="1">
          <mxGeometry x="555" y="280" width="98.75" height="30" as="geometry" />
        </mxCell>
        <mxCell id="1gT3Ja12D5MldLnMkyY_-76" value="" style="endArrow=classic;html=1;rounded=0;entryX=0;entryY=0.885;entryDx=0;entryDy=0;entryPerimeter=0;" edge="1" parent="1" target="1gT3Ja12D5MldLnMkyY_-83">
          <mxGeometry width="50" height="50" relative="1" as="geometry">
            <mxPoint x="765" y="480" as="sourcePoint" />
            <mxPoint x="770" y="380" as="targetPoint" />
          </mxGeometry>
        </mxCell>
        <mxCell id="1gT3Ja12D5MldLnMkyY_-78" value="" style="rounded=0;whiteSpace=wrap;html=1;" vertex="1" parent="1">
          <mxGeometry x="730" y="322.5" width="30" height="25" as="geometry" />
        </mxCell>
        <mxCell id="1gT3Ja12D5MldLnMkyY_-79" value="04" style="text;strokeColor=none;align=center;fillColor=none;html=1;verticalAlign=middle;whiteSpace=wrap;rounded=0;" vertex="1" parent="1">
          <mxGeometry x="715" y="320" width="60" height="30" as="geometry" />
        </mxCell>
        <mxCell id="1gT3Ja12D5MldLnMkyY_-81" value="" style="endArrow=none;html=1;rounded=0;" edge="1" parent="1">
          <mxGeometry width="50" height="50" relative="1" as="geometry">
            <mxPoint x="760" y="322.5" as="sourcePoint" />
            <mxPoint x="920" y="322.5" as="targetPoint" />
          </mxGeometry>
        </mxCell>
        <mxCell id="1gT3Ja12D5MldLnMkyY_-82" value="" style="endArrow=none;html=1;rounded=0;" edge="1" parent="1">
          <mxGeometry width="50" height="50" relative="1" as="geometry">
            <mxPoint x="760" y="347.5" as="sourcePoint" />
            <mxPoint x="925" y="347.5" as="targetPoint" />
          </mxGeometry>
        </mxCell>
        <mxCell id="1gT3Ja12D5MldLnMkyY_-83" value="Таблица паролей в БД" style="text;strokeColor=none;align=center;fillColor=none;html=1;verticalAlign=middle;whiteSpace=wrap;rounded=0;" vertex="1" parent="1">
          <mxGeometry x="765" y="320" width="130" height="30" as="geometry" />
        </mxCell>
        <mxCell id="1gT3Ja12D5MldLnMkyY_-84" value="" style="whiteSpace=wrap;html=1;fillColor=#006600;rounded=1;" vertex="1" parent="1">
          <mxGeometry x="755" y="160" width="120" height="80" as="geometry" />
        </mxCell>
        <mxCell id="1gT3Ja12D5MldLnMkyY_-86" value="" style="endArrow=none;html=1;rounded=0;" edge="1" parent="1">
          <mxGeometry width="50" height="50" relative="1" as="geometry">
            <mxPoint x="755" y="180" as="sourcePoint" />
            <mxPoint x="874" y="180" as="targetPoint" />
          </mxGeometry>
        </mxCell>
        <mxCell id="1gT3Ja12D5MldLnMkyY_-87" value="&lt;font color=&quot;#ffffff&quot;&gt;Process 1.7&lt;/font&gt;" style="text;strokeColor=none;align=center;fillColor=none;html=1;verticalAlign=middle;whiteSpace=wrap;rounded=0;" vertex="1" parent="1">
          <mxGeometry x="780" y="170" width="70" height="10" as="geometry" />
        </mxCell>
        <mxCell id="1gT3Ja12D5MldLnMkyY_-88" value="&lt;font color=&quot;#ffffff&quot;&gt;Сообщить о неверном значении пароля&lt;/font&gt;" style="text;strokeColor=none;align=center;fillColor=none;html=1;verticalAlign=middle;whiteSpace=wrap;rounded=0;" vertex="1" parent="1">
          <mxGeometry x="765" y="195" width="100" height="30" as="geometry" />
        </mxCell>
        <mxCell id="1gT3Ja12D5MldLnMkyY_-91" value="" style="endArrow=classic;startArrow=classic;html=1;rounded=0;" edge="1" parent="1">
          <mxGeometry width="50" height="50" relative="1" as="geometry">
            <mxPoint x="280" y="478" as="sourcePoint" />
            <mxPoint x="205" y="170" as="targetPoint" />
            <Array as="points">
              <mxPoint x="280" y="210" />
              <mxPoint x="205" y="210" />
            </Array>
          </mxGeometry>
        </mxCell>
        <mxCell id="1gT3Ja12D5MldLnMkyY_-92" value="" style="endArrow=classic;html=1;rounded=0;" edge="1" parent="1">
          <mxGeometry width="50" height="50" relative="1" as="geometry">
            <mxPoint x="180" y="240" as="sourcePoint" />
            <mxPoint x="180" y="170" as="targetPoint" />
          </mxGeometry>
        </mxCell>
        <mxCell id="1gT3Ja12D5MldLnMkyY_-93" value="" style="endArrow=classic;html=1;rounded=0;entryX=0.364;entryY=1;entryDx=0;entryDy=0;entryPerimeter=0;exitX=0.801;exitY=0.003;exitDx=0;exitDy=0;exitPerimeter=0;" edge="1" parent="1" source="1gT3Ja12D5MldLnMkyY_-45" target="1gT3Ja12D5MldLnMkyY_-1">
          <mxGeometry width="50" height="50" relative="1" as="geometry">
            <mxPoint x="985.4285714285713" y="480" as="sourcePoint" />
            <mxPoint x="180" y="180" as="targetPoint" />
            <Array as="points">
              <mxPoint x="1020" y="-130" />
              <mxPoint x="20" y="-130" />
              <mxPoint x="20" y="210" />
              <mxPoint x="160" y="210" />
            </Array>
          </mxGeometry>
        </mxCell>
        <mxCell id="1gT3Ja12D5MldLnMkyY_-94" value="" style="endArrow=classic;html=1;rounded=0;exitX=0.5;exitY=0;exitDx=0;exitDy=0;" edge="1" parent="1" source="1gT3Ja12D5MldLnMkyY_-69">
          <mxGeometry width="50" height="50" relative="1" as="geometry">
            <mxPoint x="630" y="220" as="sourcePoint" />
            <mxPoint x="25" y="495" as="targetPoint" />
            <Array as="points">
              <mxPoint x="600" y="-80" />
              <mxPoint x="-50" y="-80" />
              <mxPoint x="-50" y="495" />
            </Array>
          </mxGeometry>
        </mxCell>
        <mxCell id="1gT3Ja12D5MldLnMkyY_-95" value="" style="endArrow=classic;html=1;rounded=0;" edge="1" parent="1">
          <mxGeometry width="50" height="50" relative="1" as="geometry">
            <mxPoint x="840" y="160" as="sourcePoint" />
            <mxPoint x="25" y="510" as="targetPoint" />
            <Array as="points">
              <mxPoint x="840" y="-120" />
              <mxPoint x="-80" y="-120" />
              <mxPoint x="-80" y="510" />
            </Array>
          </mxGeometry>
        </mxCell>
        <mxCell id="1gT3Ja12D5MldLnMkyY_-96" value="" style="endArrow=classic;html=1;rounded=0;" edge="1" parent="1">
          <mxGeometry width="50" height="50" relative="1" as="geometry">
            <mxPoint x="1040" y="520" as="sourcePoint" />
            <mxPoint x="25" y="525" as="targetPoint" />
            <Array as="points">
              <mxPoint x="1080" y="520" />
              <mxPoint x="1080" y="600" />
              <mxPoint x="-70" y="600" />
              <mxPoint x="-70" y="525" />
            </Array>
          </mxGeometry>
        </mxCell>
        <mxCell id="1gT3Ja12D5MldLnMkyY_-100" value="" style="endArrow=classic;html=1;rounded=0;" edge="1" parent="1">
          <mxGeometry width="50" height="50" relative="1" as="geometry">
            <mxPoint x="20" y="210" as="sourcePoint" />
            <mxPoint x="120" y="302.5" as="targetPoint" />
            <Array as="points">
              <mxPoint x="20" y="302" />
            </Array>
          </mxGeometry>
        </mxCell>
        <mxCell id="1gT3Ja12D5MldLnMkyY_-101" value="" style="endArrow=classic;html=1;rounded=0;entryX=1.004;entryY=0.44;entryDx=0;entryDy=0;entryPerimeter=0;" edge="1" parent="1" target="1gT3Ja12D5MldLnMkyY_-2">
          <mxGeometry width="50" height="50" relative="1" as="geometry">
            <mxPoint x="540" y="280" as="sourcePoint" />
            <mxPoint x="250" y="280" as="targetPoint" />
          </mxGeometry>
        </mxCell>
        <mxCell id="1gT3Ja12D5MldLnMkyY_-103" value="" style="endArrow=none;html=1;rounded=0;entryX=0;entryY=0.5;entryDx=0;entryDy=0;" edge="1" parent="1" target="1gT3Ja12D5MldLnMkyY_-84">
          <mxGeometry width="50" height="50" relative="1" as="geometry">
            <mxPoint x="480" y="280" as="sourcePoint" />
            <mxPoint x="480" y="150" as="targetPoint" />
            <Array as="points">
              <mxPoint x="480" y="200" />
            </Array>
          </mxGeometry>
        </mxCell>
        <mxCell id="1gT3Ja12D5MldLnMkyY_-104" value="" style="endArrow=classic;html=1;rounded=0;entryX=-0.01;entryY=0.571;entryDx=0;entryDy=0;exitX=0.998;exitY=0.671;exitDx=0;exitDy=0;exitPerimeter=0;entryPerimeter=0;" edge="1" parent="1" source="1gT3Ja12D5MldLnMkyY_-12" target="1gT3Ja12D5MldLnMkyY_-16">
          <mxGeometry width="50" height="50" relative="1" as="geometry">
            <mxPoint x="160.0049999999998" y="514.0600000000001" as="sourcePoint" />
            <mxPoint x="237.4799999999997" y="515.9400000000002" as="targetPoint" />
          </mxGeometry>
        </mxCell>
        <mxCell id="1gT3Ja12D5MldLnMkyY_-105" value="" style="endArrow=classic;html=1;rounded=0;entryX=0;entryY=0.571;entryDx=0;entryDy=0;entryPerimeter=0;" edge="1" parent="1" target="1gT3Ja12D5MldLnMkyY_-22">
          <mxGeometry width="50" height="50" relative="1" as="geometry">
            <mxPoint x="340" y="520" as="sourcePoint" />
            <mxPoint x="390" y="470" as="targetPoint" />
          </mxGeometry>
        </mxCell>
        <mxCell id="1gT3Ja12D5MldLnMkyY_-106" value="" style="endArrow=classic;html=1;rounded=0;entryX=-0.01;entryY=0.568;entryDx=0;entryDy=0;entryPerimeter=0;" edge="1" parent="1">
          <mxGeometry width="50" height="50" relative="1" as="geometry">
            <mxPoint x="500" y="500.24" as="sourcePoint" />
            <mxPoint x="569" y="500.0000000000002" as="targetPoint" />
          </mxGeometry>
        </mxCell>
        <mxCell id="1gT3Ja12D5MldLnMkyY_-107" value="" style="endArrow=classic;html=1;rounded=0;entryX=-0.012;entryY=0.579;entryDx=0;entryDy=0;entryPerimeter=0;" edge="1" parent="1" target="1gT3Ja12D5MldLnMkyY_-38">
          <mxGeometry width="50" height="50" relative="1" as="geometry">
            <mxPoint x="670" y="520" as="sourcePoint" />
            <mxPoint x="720" y="470" as="targetPoint" />
          </mxGeometry>
        </mxCell>
        <mxCell id="1gT3Ja12D5MldLnMkyY_-108" value="" style="endArrow=classic;html=1;rounded=0;entryX=0;entryY=0.429;entryDx=0;entryDy=0;entryPerimeter=0;" edge="1" parent="1" target="1gT3Ja12D5MldLnMkyY_-45">
          <mxGeometry width="50" height="50" relative="1" as="geometry">
            <mxPoint x="840" y="510" as="sourcePoint" />
            <mxPoint x="890" y="460" as="targetPoint" />
          </mxGeometry>
        </mxCell>
        <mxCell id="1gT3Ja12D5MldLnMkyY_-109" value="" style="endArrow=classic;html=1;rounded=0;entryX=-0.01;entryY=0.714;entryDx=0;entryDy=0;entryPerimeter=0;" edge="1" parent="1" target="1gT3Ja12D5MldLnMkyY_-45">
          <mxGeometry width="50" height="50" relative="1" as="geometry">
            <mxPoint x="840" y="530" as="sourcePoint" />
            <mxPoint x="890" y="480" as="targetPoint" />
          </mxGeometry>
        </mxCell>
        <mxCell id="1gT3Ja12D5MldLnMkyY_-110" value="" style="endArrow=classic;html=1;rounded=0;exitX=0.704;exitY=1;exitDx=0;exitDy=0;exitPerimeter=0;" edge="1" parent="1" source="1gT3Ja12D5MldLnMkyY_-12">
          <mxGeometry width="50" height="50" relative="1" as="geometry">
            <mxPoint x="90" y="570" as="sourcePoint" />
            <mxPoint x="439" y="550" as="targetPoint" />
            <Array as="points">
              <mxPoint x="120" y="570" />
              <mxPoint x="439" y="570" />
            </Array>
          </mxGeometry>
        </mxCell>
        <mxCell id="1gT3Ja12D5MldLnMkyY_-111" value="" style="endArrow=classic;html=1;rounded=0;exitX=0.25;exitY=1;exitDx=0;exitDy=0;" edge="1" parent="1" source="1gT3Ja12D5MldLnMkyY_-12">
          <mxGeometry width="50" height="50" relative="1" as="geometry">
            <mxPoint x="80" y="540" as="sourcePoint" />
            <mxPoint x="480" y="550" as="targetPoint" />
            <Array as="points">
              <mxPoint x="60" y="580" />
              <mxPoint x="480" y="580" />
            </Array>
          </mxGeometry>
        </mxCell>
        <mxCell id="1gT3Ja12D5MldLnMkyY_-112" value="" style="endArrow=classic;html=1;rounded=0;entryX=-0.026;entryY=0.862;entryDx=0;entryDy=0;entryPerimeter=0;" edge="1" parent="1" target="1gT3Ja12D5MldLnMkyY_-38">
          <mxGeometry width="50" height="50" relative="1" as="geometry">
            <mxPoint x="500" y="540" as="sourcePoint" />
            <mxPoint x="710" y="490" as="targetPoint" />
            <Array as="points">
              <mxPoint x="540" y="540" />
              <mxPoint x="540" y="570" />
              <mxPoint x="710" y="570" />
              <mxPoint x="710" y="540" />
            </Array>
          </mxGeometry>
        </mxCell>
        <mxCell id="1gT3Ja12D5MldLnMkyY_-113" value="Дата и время события" style="text;strokeColor=none;align=center;fillColor=none;html=1;verticalAlign=middle;whiteSpace=wrap;rounded=0;" vertex="1" parent="1">
          <mxGeometry x="50" y="210" width="130" height="30" as="geometry" />
        </mxCell>
        <mxCell id="1gT3Ja12D5MldLnMkyY_-114" value="Подтверждение&lt;div&gt;входа в систему&lt;/div&gt;" style="text;strokeColor=none;align=center;fillColor=none;html=1;verticalAlign=middle;whiteSpace=wrap;rounded=0;" vertex="1" parent="1">
          <mxGeometry x="40" y="260" width="60" height="30" as="geometry" />
        </mxCell>
        <mxCell id="1gT3Ja12D5MldLnMkyY_-115" value="E1" style="text;strokeColor=none;align=center;fillColor=none;html=1;verticalAlign=middle;whiteSpace=wrap;rounded=0;" vertex="1" parent="1">
          <mxGeometry x="10" y="480" width="60" height="30" as="geometry" />
        </mxCell>
        <mxCell id="1gT3Ja12D5MldLnMkyY_-117" value="E2" style="text;strokeColor=none;align=center;fillColor=none;html=1;verticalAlign=middle;whiteSpace=wrap;rounded=0;" vertex="1" parent="1">
          <mxGeometry x="85" y="385" width="60" height="15" as="geometry" />
        </mxCell>
        <mxCell id="1gT3Ja12D5MldLnMkyY_-118" value="" style="endArrow=classic;html=1;rounded=0;exitX=0.204;exitY=-0.008;exitDx=0;exitDy=0;exitPerimeter=0;" edge="1" parent="1" source="1gT3Ja12D5MldLnMkyY_-10">
          <mxGeometry width="50" height="50" relative="1" as="geometry">
            <mxPoint x="160" y="360.2423650568182" as="sourcePoint" />
            <mxPoint x="130" y="330" as="targetPoint" />
          </mxGeometry>
        </mxCell>
        <mxCell id="1gT3Ja12D5MldLnMkyY_-119" value="" style="endArrow=classic;html=1;rounded=0;" edge="1" parent="1">
          <mxGeometry width="50" height="50" relative="1" as="geometry">
            <mxPoint x="220" y="380" as="sourcePoint" />
            <mxPoint x="220" y="330" as="targetPoint" />
          </mxGeometry>
        </mxCell>
        <mxCell id="1gT3Ja12D5MldLnMkyY_-120" value="Текущие дата и время" style="text;strokeColor=none;align=center;fillColor=none;html=1;verticalAlign=middle;whiteSpace=wrap;rounded=0;" vertex="1" parent="1">
          <mxGeometry x="145" y="342.5" width="60" height="30" as="geometry" />
        </mxCell>
        <mxCell id="1gT3Ja12D5MldLnMkyY_-121" value="Запрос даты и времени" style="text;strokeColor=none;align=center;fillColor=none;html=1;verticalAlign=middle;whiteSpace=wrap;rounded=0;" vertex="1" parent="1">
          <mxGeometry x="220" y="340" width="60" height="30" as="geometry" />
        </mxCell>
        <mxCell id="1gT3Ja12D5MldLnMkyY_-122" value="Запись о дате времени и типе события" style="text;strokeColor=none;align=center;fillColor=none;html=1;verticalAlign=middle;whiteSpace=wrap;rounded=0;" vertex="1" parent="1">
          <mxGeometry x="230" y="65" width="80" height="30" as="geometry" />
        </mxCell>
        <mxCell id="1gT3Ja12D5MldLnMkyY_-123" value="Запрос формы" style="text;strokeColor=none;align=center;fillColor=none;html=1;verticalAlign=middle;whiteSpace=wrap;rounded=0;" vertex="1" parent="1">
          <mxGeometry x="170" y="490" width="60" height="30" as="geometry" />
        </mxCell>
        <mxCell id="1gT3Ja12D5MldLnMkyY_-124" value="Логин" style="text;strokeColor=none;align=center;fillColor=none;html=1;verticalAlign=middle;whiteSpace=wrap;rounded=0;" vertex="1" parent="1">
          <mxGeometry x="125" y="540" width="60" height="30" as="geometry" />
        </mxCell>
        <mxCell id="1gT3Ja12D5MldLnMkyY_-125" value="Пароль" style="text;strokeColor=none;align=center;fillColor=none;html=1;verticalAlign=middle;whiteSpace=wrap;rounded=0;" vertex="1" parent="1">
          <mxGeometry x="60" y="540" width="60" height="30" as="geometry" />
        </mxCell>
        <mxCell id="1gT3Ja12D5MldLnMkyY_-126" value="Ошибка авторизации&amp;nbsp;" style="text;strokeColor=none;align=center;fillColor=none;html=1;verticalAlign=middle;whiteSpace=wrap;rounded=0;rotation=90;" vertex="1" parent="1">
          <mxGeometry x="260" y="225" width="70" height="30" as="geometry" />
        </mxCell>
        <mxCell id="1gT3Ja12D5MldLnMkyY_-127" value="Ошибка авторизации&amp;nbsp;" style="text;strokeColor=none;align=center;fillColor=none;html=1;verticalAlign=middle;whiteSpace=wrap;rounded=0;" vertex="1" parent="1">
          <mxGeometry x="405" y="270" width="150" height="30" as="geometry" />
        </mxCell>
        <mxCell id="1gT3Ja12D5MldLnMkyY_-128" value="Форма ввода учетных данных" style="text;strokeColor=none;align=center;fillColor=none;html=1;verticalAlign=middle;whiteSpace=wrap;rounded=0;" vertex="1" parent="1">
          <mxGeometry x="340" y="470" width="60" height="30" as="geometry" />
        </mxCell>
        <mxCell id="1gT3Ja12D5MldLnMkyY_-129" value="Введенный логин" style="text;strokeColor=none;align=center;fillColor=none;html=1;verticalAlign=middle;whiteSpace=wrap;rounded=0;" vertex="1" parent="1">
          <mxGeometry x="495" y="470" width="82.5" height="30" as="geometry" />
        </mxCell>
        <mxCell id="1gT3Ja12D5MldLnMkyY_-130" value="Введенный пароль" style="text;strokeColor=none;align=center;fillColor=none;html=1;verticalAlign=middle;whiteSpace=wrap;rounded=0;" vertex="1" parent="1">
          <mxGeometry x="506.25" y="510" width="60" height="30" as="geometry" />
        </mxCell>
        <mxCell id="1gT3Ja12D5MldLnMkyY_-131" value="Подтвержденный логин" style="text;strokeColor=none;align=center;fillColor=none;html=1;verticalAlign=middle;whiteSpace=wrap;rounded=0;" vertex="1" parent="1">
          <mxGeometry x="680" y="465" width="60" height="30" as="geometry" />
        </mxCell>
        <mxCell id="1gT3Ja12D5MldLnMkyY_-134" value="Подтвержденный логин" style="text;strokeColor=none;align=center;fillColor=none;html=1;verticalAlign=middle;whiteSpace=wrap;rounded=0;" vertex="1" parent="1">
          <mxGeometry x="860" y="480" width="60" height="30" as="geometry" />
        </mxCell>
        <mxCell id="1gT3Ja12D5MldLnMkyY_-135" value="Подтвержденный пароль" style="text;strokeColor=none;align=center;fillColor=none;html=1;verticalAlign=middle;whiteSpace=wrap;rounded=0;" vertex="1" parent="1">
          <mxGeometry x="860" y="530" width="60" height="30" as="geometry" />
        </mxCell>
        <mxCell id="1gT3Ja12D5MldLnMkyY_-136" value="Предоставленные полномочия" style="text;strokeColor=none;align=center;fillColor=none;html=1;verticalAlign=middle;whiteSpace=wrap;rounded=0;" vertex="1" parent="1">
          <mxGeometry x="1000" y="570" width="60" height="30" as="geometry" />
        </mxCell>
        <mxCell id="1gT3Ja12D5MldLnMkyY_-137" value="Подтверждение входа в систему" style="text;strokeColor=none;align=center;fillColor=none;html=1;verticalAlign=middle;whiteSpace=wrap;rounded=0;" vertex="1" parent="1">
          <mxGeometry x="940" y="440" width="60" height="30" as="geometry" />
        </mxCell>
        <mxCell id="1gT3Ja12D5MldLnMkyY_-138" value="Введенный логин" style="text;strokeColor=none;align=center;fillColor=none;html=1;verticalAlign=middle;whiteSpace=wrap;rounded=0;rotation=90;" vertex="1" parent="1">
          <mxGeometry x="530" y="425" width="60" height="30" as="geometry" />
        </mxCell>
        <mxCell id="1gT3Ja12D5MldLnMkyY_-139" value="Информация о наличии совпадения" style="text;strokeColor=none;align=center;fillColor=none;html=1;verticalAlign=middle;whiteSpace=wrap;rounded=0;rotation=90;" vertex="1" parent="1">
          <mxGeometry x="590" y="425" width="60" height="30" as="geometry" />
        </mxCell>
        <mxCell id="1gT3Ja12D5MldLnMkyY_-140" value="Информация об отсутствии совпадения" style="text;strokeColor=none;align=center;fillColor=none;html=1;verticalAlign=middle;whiteSpace=wrap;rounded=0;" vertex="1" parent="1">
          <mxGeometry x="620" y="330" width="60" height="30" as="geometry" />
        </mxCell>
        <mxCell id="1gT3Ja12D5MldLnMkyY_-142" value="" style="endArrow=classic;html=1;rounded=0;exitX=0.481;exitY=0.915;exitDx=0;exitDy=0;exitPerimeter=0;entryX=0.889;entryY=0.014;entryDx=0;entryDy=0;entryPerimeter=0;" edge="1" parent="1" source="1gT3Ja12D5MldLnMkyY_-83" target="1gT3Ja12D5MldLnMkyY_-38">
          <mxGeometry width="50" height="50" relative="1" as="geometry">
            <mxPoint x="790" y="430" as="sourcePoint" />
            <mxPoint x="840" y="380" as="targetPoint" />
          </mxGeometry>
        </mxCell>
        <mxCell id="1gT3Ja12D5MldLnMkyY_-143" value="Введенный значение" style="text;strokeColor=none;align=center;fillColor=none;html=1;verticalAlign=middle;whiteSpace=wrap;rounded=0;rotation=90;" vertex="1" parent="1">
          <mxGeometry x="715" y="395" width="60" height="30" as="geometry" />
        </mxCell>
        <mxCell id="1gT3Ja12D5MldLnMkyY_-144" value="Информация о наличии совпадения" style="text;strokeColor=none;align=center;fillColor=none;html=1;verticalAlign=middle;whiteSpace=wrap;rounded=0;rotation=90;" vertex="1" parent="1">
          <mxGeometry x="772.5" y="395" width="60" height="30" as="geometry" />
        </mxCell>
        <mxCell id="1gT3Ja12D5MldLnMkyY_-145" value="Информация об отсутствии совпадения" style="text;strokeColor=none;align=center;fillColor=none;html=1;verticalAlign=middle;whiteSpace=wrap;rounded=0;rotation=90;" vertex="1" parent="1">
          <mxGeometry x="825" y="270" width="60" height="30" as="geometry" />
        </mxCell>
        <mxCell id="1gT3Ja12D5MldLnMkyY_-146" value="" style="endArrow=classic;html=1;rounded=0;exitX=0.419;exitY=0.061;exitDx=0;exitDy=0;exitPerimeter=0;entryX=0.51;entryY=1.02;entryDx=0;entryDy=0;entryPerimeter=0;" edge="1" parent="1" target="1gT3Ja12D5MldLnMkyY_-84">
          <mxGeometry width="50" height="50" relative="1" as="geometry">
            <mxPoint x="817.23" y="322.49999999999994" as="sourcePoint" />
            <mxPoint x="812.76" y="240.67" as="targetPoint" />
          </mxGeometry>
        </mxCell>
        <mxCell id="1gT3Ja12D5MldLnMkyY_-147" value="Ошибка авторизации&amp;nbsp;" style="text;strokeColor=none;align=center;fillColor=none;html=1;verticalAlign=middle;whiteSpace=wrap;rounded=0;" vertex="1" parent="1">
          <mxGeometry x="625" y="195" width="140" height="30" as="geometry" />
        </mxCell>
        <mxCell id="1gT3Ja12D5MldLnMkyY_-149" value="Сообщение об ошибке логина" style="text;strokeColor=none;align=center;fillColor=none;html=1;verticalAlign=middle;whiteSpace=wrap;rounded=0;rotation=90;" vertex="1" parent="1">
          <mxGeometry x="548.12" y="-9.999999999999993" width="143.75" height="30" as="geometry" />
        </mxCell>
        <mxCell id="1gT3Ja12D5MldLnMkyY_-150" value="Сообщение об ошибке пароля" style="text;strokeColor=none;align=center;fillColor=none;html=1;verticalAlign=middle;whiteSpace=wrap;rounded=0;rotation=90;" vertex="1" parent="1">
          <mxGeometry x="780" y="-60" width="155" height="30" as="geometry" />
        </mxCell>
      </root>
    </mxGraphModel>
  </diagram>
</mxfile>
